<?xml version="1.0" encoding="utf-8"?>
<!-- Generator: Adobe Illustrator 16.0.4, SVG Export Plug-In . SVG Version: 6.00 Build 0)  -->
<!DOCTYPE svg PUBLIC "-//W3C//DTD SVG 1.1//EN" "http://www.w3.org/Graphics/SVG/1.1/DTD/svg11.dtd">
<svg version="1.1" id="Ebene_1" xmlns="http://www.w3.org/2000/svg" xmlns:xlink="http://www.w3.org/1999/xlink" x="0px" y="0px"
	 width="80.833px" height="60.667px" viewBox="0 0 80.833 60.667" enable-background="new 0 0 80.833 60.667" xml:space="preserve">
<g>
	<g>
		<path d="M74.702,28.263c-2.891,0-5.24,2.35-5.24,5.238c0,2.891,2.35,5.242,5.24,5.242c2.889,0,5.238-2.352,5.238-5.242
			C79.94,30.613,77.59,28.263,74.702,28.263z"/>
		<path d="M61.036,28.263c-2.891,0-5.238,2.35-5.238,5.238c0,2.891,2.348,5.242,5.238,5.242c2.889,0,5.238-2.352,5.238-5.242
			C66.274,30.613,63.924,28.263,61.036,28.263z"/>
		<path d="M19.814,28.263c-2.889,0-5.238,2.35-5.238,5.238c0,2.891,2.35,5.242,5.238,5.242c2.89,0,5.237-2.352,5.237-5.242
			C25.052,30.613,22.704,28.263,19.814,28.263z"/>
		<path d="M6.151,28.263c-2.891,0-5.241,2.35-5.241,5.238c0,2.891,2.351,5.242,5.241,5.242c2.887,0,5.234-2.352,5.234-5.242
			C11.386,30.613,9.038,28.263,6.151,28.263z"/>
		<path d="M74.702,24.852c2.889,0,5.238-2.35,5.238-5.238c0-2.89-2.35-5.241-5.238-5.241c-2.891,0-5.24,2.351-5.24,5.241
			C69.461,22.502,71.811,24.852,74.702,24.852z"/>
		<path d="M61.036,14.373c-2.891,0-5.238,2.351-5.238,5.241c0,2.888,2.348,5.238,5.238,5.238c2.889,0,5.238-2.35,5.238-5.238
			C66.274,16.724,63.924,14.373,61.036,14.373z"/>
		<path d="M47.372,14.373c-2.891,0-5.242,2.351-5.242,5.241c0,2.888,2.352,5.238,5.242,5.238c2.887,0,5.234-2.35,5.234-5.238
			C52.606,16.724,50.258,14.373,47.372,14.373z"/>
		<path d="M33.48,14.373c-2.889,0-5.239,2.351-5.239,5.241c0,2.888,2.351,5.238,5.239,5.238c2.89,0,5.239-2.35,5.239-5.238
			C38.72,16.724,36.37,14.373,33.48,14.373z"/>
		<path d="M19.814,14.373c-2.889,0-5.238,2.351-5.238,5.241c0,2.888,2.35,5.238,5.238,5.238c2.89,0,5.237-2.35,5.237-5.238
			C25.052,16.724,22.704,14.373,19.814,14.373z"/>
		<path d="M61.036,0.484c-2.891,0-5.238,2.35-5.238,5.238c0,2.89,2.348,5.24,5.238,5.24c2.889,0,5.238-2.351,5.238-5.24
			C66.274,2.834,63.924,0.484,61.036,0.484z"/>
		<path d="M47.372,0.484c-2.891,0-5.242,2.35-5.242,5.238c0,2.89,2.352,5.24,5.242,5.24c2.887,0,5.234-2.351,5.234-5.24
			C52.606,2.834,50.258,0.484,47.372,0.484z"/>
		<path d="M33.48,0.484c-2.889,0-5.239,2.35-5.239,5.238c0,2.89,2.351,5.24,5.239,5.24c2.89,0,5.239-2.351,5.239-5.24
			C38.72,2.834,36.37,0.484,33.48,0.484z"/>
		<path d="M19.814,0.484c-2.889,0-5.238,2.35-5.238,5.238c0,2.89,2.35,5.24,5.238,5.24c2.89,0,5.237-2.351,5.237-5.24
			C25.052,2.834,22.704,0.484,19.814,0.484z"/>
		<path d="M6.151,14.373c-2.891,0-5.241,2.351-5.241,5.241c0,2.888,2.351,5.238,5.241,5.238c2.887,0,5.234-2.35,5.234-5.238
			C11.386,16.724,9.038,14.373,6.151,14.373z"/>
	</g>
	<g>
		<path d="M18.72,44.909h-2.596c-0.164,0-0.299,0.133-0.299,0.297v14.762c0,0.164,0.135,0.298,0.299,0.298h2.596
			c0.16,0,0.295-0.136,0.295-0.298V45.206C19.015,45.045,18.88,44.909,18.72,44.909z"/>
		<path d="M10.853,52.233c1.162-0.772,1.729-1.83,1.729-3.232V48.96c0-1.062-0.354-1.932-1.078-2.657
			c-0.91-0.912-2.318-1.394-4.07-1.394H0.987c-0.164,0-0.299,0.133-0.299,0.297v14.762c0,0.164,0.135,0.298,0.299,0.298h6.656
			c3.605,0,5.76-1.625,5.76-4.347v-0.043C13.403,54.14,12.593,52.982,10.853,52.233z M7.665,57.372H3.833v-3.455h3.643
			c1.25,0,2.74,0.293,2.74,1.686v0.043C10.216,57.147,8.618,57.372,7.665,57.372z M3.833,51.13v-3.328h3.262
			c1.459,0,2.297,0.576,2.297,1.58v0.041c0,1.485-1.557,1.707-2.486,1.707H3.833z"/>
		<path d="M33.456,44.909H21.479c-0.162,0-0.295,0.133-0.295,0.297v2.404c0,0.163,0.133,0.295,0.295,0.295h4.383v12.062
			c0,0.164,0.135,0.298,0.299,0.298h2.613c0.164,0,0.299-0.134,0.299-0.298V47.905h4.383c0.164,0,0.297-0.132,0.297-0.295v-2.404
			C33.753,45.039,33.622,44.909,33.456,44.909z"/>
		<path d="M57.772,44.909h-2.723c-0.129,0-0.244,0.084-0.281,0.204L51.522,55.19l-3.34-10.116c-0.039-0.122-0.154-0.206-0.283-0.206
			h-2.195c-0.129,0-0.242,0.081-0.279,0.201l-3.342,10.124l-3.244-10.081c-0.041-0.122-0.154-0.203-0.281-0.203h-2.803
			c-0.098,0-0.182,0.042-0.25,0.129c-0.053,0.076-0.064,0.179-0.031,0.265l5.145,14.872c0.045,0.119,0.154,0.195,0.279,0.195h2.236
			c0.125,0,0.238-0.079,0.281-0.199l3.346-9.788l3.344,9.787c0.041,0.118,0.156,0.2,0.283,0.2h2.236c0.125,0,0.24-0.081,0.275-0.191
			l5.15-14.88c0.031-0.095,0.016-0.194-0.045-0.274C57.948,44.952,57.862,44.909,57.772,44.909z"/>
		<path d="M63.17,44.909h-2.594c-0.162,0-0.295,0.133-0.295,0.297v14.762c0,0.164,0.133,0.298,0.295,0.298h2.594
			c0.162,0,0.297-0.134,0.297-0.298V45.206C63.467,45.042,63.333,44.909,63.17,44.909z"/>
		<path d="M79.981,51.427h-6.285c-0.162,0-0.295,0.132-0.295,0.295v2.258c0,0.164,0.133,0.297,0.295,0.297h3.479v2.312
			c-0.889,0.619-2.08,0.974-3.268,0.974c-2.779,0-4.721-2.046-4.721-4.975v-0.044c0-2.709,2.016-4.914,4.49-4.914
			c1.805,0,2.846,0.579,3.943,1.516c0.051,0.041,0.102,0.064,0.23,0.066c0.059-0.007,0.139-0.039,0.184-0.101l1.646-1.966
			c0.051-0.059,0.076-0.139,0.07-0.223c-0.01-0.076-0.047-0.145-0.104-0.191c-1.738-1.475-3.439-2.075-5.867-2.075
			c-4.434,0-7.908,3.483-7.908,7.932v0.04c0,4.646,3.27,7.889,7.953,7.889c2.963,0,5.088-1.287,6.35-2.369
			c0.064-0.055,0.104-0.141,0.104-0.224v-6.202C80.278,51.559,80.145,51.427,79.981,51.427z"/>
	</g>
</g>
</svg>
